<svg width="52" height="65" viewBox="0 0 52 65" fill="none" xmlns="http://www.w3.org/2000/svg">
<g filter="url(#filter0_d_98_114)">
<path d="M24.4837 13.4162C25.2227 12.8661 26.19 12.8661 26.929 13.4162L28.1248 14.2978C28.5278 14.5917 28.9981 14.7349 29.475 14.7047L30.9059 14.6068C31.7927 14.5465 32.6257 15.089 33.022 15.9782L33.6669 17.4174C33.8819 17.8996 34.2312 18.2839 34.6545 18.5251L35.951 19.256C36.7437 19.7005 37.2274 20.6349 37.1736 21.6296L37.0863 23.2345C37.0594 23.7695 37.1871 24.3045 37.4491 24.7491L38.2418 26.0904C38.7322 26.9192 38.7322 28.0043 38.2418 28.8332L37.4491 30.182C37.1871 30.6341 37.0594 31.1615 37.0863 31.6965L37.1736 33.3015C37.2274 34.2962 36.7437 35.2305 35.951 35.6751L34.6679 36.3985C34.238 36.6396 33.8953 37.0314 33.6804 37.5062L33.0288 38.9604C32.6324 39.8496 31.7994 40.3921 30.9126 40.3318L29.4818 40.2339C29.0048 40.2038 28.5278 40.3469 28.1315 40.6408L26.9357 41.5299C26.1967 42.08 25.2294 42.08 24.4904 41.5299L23.2879 40.6408C22.8849 40.3469 22.4146 40.2038 21.9377 40.2339L20.5068 40.3318C19.62 40.3921 18.787 39.8496 18.3907 38.9604L17.7457 37.5212C17.5308 37.039 17.1815 36.6547 16.7582 36.4136L15.4617 35.6826C14.669 35.2381 14.1853 34.3037 14.2391 33.3091L14.3264 31.7041C14.3533 31.1691 14.2256 30.6341 13.9636 30.1895L13.1776 28.8407C12.6872 28.0118 12.6872 26.9268 13.1776 26.0979L13.9636 24.7566C14.2256 24.3045 14.3533 23.7771 14.3264 23.2421L14.2391 21.6371C14.1853 20.6424 14.669 19.7081 15.4617 19.2635L16.7448 18.5401C17.1747 18.2915 17.5241 17.8996 17.739 17.4174L18.3839 15.9782C18.7803 15.089 19.6133 14.5465 20.5 14.6068L21.9309 14.7047C22.4079 14.7349 22.8849 14.5917 23.2812 14.2978L24.4837 13.4162ZM31.0806 27.4693C31.0806 25.8705 30.5144 24.3373 29.5065 23.2068C28.4986 22.0763 27.1317 21.4412 25.7063 21.4412C24.281 21.4412 22.914 22.0763 21.9062 23.2068C20.8983 24.3373 20.3321 25.8705 20.3321 27.4693C20.3321 29.0681 20.8983 30.6014 21.9062 31.7318C22.914 32.8623 24.281 33.4974 25.7063 33.4974C27.1317 33.4974 28.4986 32.8623 29.5065 31.7318C30.5144 30.6014 31.0806 29.0681 31.0806 27.4693ZM12.8955 46.2922L15.7909 38.5686C15.8043 38.5762 15.811 38.5837 15.8177 38.5988L16.4626 40.038C17.2486 41.7861 18.8811 42.8486 20.6277 42.7356L22.0586 42.6376C22.072 42.6376 22.0922 42.6376 22.1056 42.6527L23.3014 43.5418C23.644 43.7905 24.0067 43.9864 24.3829 44.122L21.857 50.8509C21.7025 51.2654 21.3599 51.5442 20.9636 51.5819C20.5672 51.6195 20.1843 51.4161 19.9693 51.0393L17.8062 47.3245L14.0375 47.9499C13.6546 48.0102 13.2717 47.8369 13.0298 47.4978C12.788 47.1587 12.741 46.6915 12.8888 46.2922H12.8955ZM29.5556 50.8434L27.0298 44.122C27.4059 43.9864 27.7687 43.798 28.1113 43.5418L29.3071 42.6527C29.3205 42.6451 29.334 42.6376 29.3541 42.6376L30.785 42.7356C32.5316 42.8486 34.1641 41.7861 34.95 40.038L35.595 38.5988C35.6017 38.5837 35.6084 38.5762 35.6218 38.5686L38.5239 46.2922C38.6717 46.6915 38.618 47.1512 38.3828 47.4978C38.1477 47.8444 37.7581 48.0177 37.3752 47.9499L33.6065 47.3245L31.4433 51.0318C31.2284 51.4086 30.8455 51.612 30.4491 51.5743C30.0528 51.5366 29.7102 51.2503 29.5556 50.8434Z" fill="url(#paint0_linear_98_114)"/>
</g>
<defs>
<filter id="filter0_d_98_114" x="0.304688" y="0.503662" width="50.8047" height="63.5828" filterUnits="userSpaceOnUse" color-interpolation-filters="sRGB">
<feFlood flood-opacity="0" result="BackgroundImageFix"/>
<feColorMatrix in="SourceAlpha" type="matrix" values="0 0 0 0 0 0 0 0 0 0 0 0 0 0 0 0 0 0 127 0" result="hardAlpha"/>
<feOffset/>
<feGaussianBlur stdDeviation="6.25"/>
<feComposite in2="hardAlpha" operator="out"/>
<feColorMatrix type="matrix" values="0 0 0 0 0 0 0 0 0 0.383173 0 0 0 0 0.766346 0 0 0 1 0"/>
<feBlend mode="normal" in2="BackgroundImageFix" result="effect1_dropShadow_98_114"/>
<feBlend mode="normal" in="SourceGraphic" in2="effect1_dropShadow_98_114" result="shape"/>
</filter>
<linearGradient id="paint0_linear_98_114" x1="15.2239" y1="22.3155" x2="35.6199" y2="41.8226" gradientUnits="userSpaceOnUse">
<stop stop-color="#0080FF"/>
<stop offset="1" stop-color="#004D99"/>
</linearGradient>
</defs>
</svg>
