<svg width="26" height="18" viewBox="0 0 26 18" fill="none" xmlns="http://www.w3.org/2000/svg">
<path d="M2.4375 0C1.0918 0 0 0.999375 0 2.23116C0 2.93305 0.360547 3.5931 0.975 4.01609L12.025 11.6021C12.6039 11.9972 13.3961 11.9972 13.975 11.6021L25.025 4.01609C25.6395 3.5931 26 2.93305 26 2.23116C26 0.999375 24.9082 0 23.5625 0H2.4375ZM0 5.20605V14.8744C0 16.5153 1.45742 17.8493 3.25 17.8493H22.75C24.5426 17.8493 26 16.5153 26 14.8744V5.20605L14.95 12.792C13.7922 13.5869 12.2078 13.5869 11.05 12.792L0 5.20605Z" fill="url(#paint0_linear_144_29)"/>
<defs>
<linearGradient id="paint0_linear_144_29" x1="13" y1="0" x2="13" y2="17.8493" gradientUnits="userSpaceOnUse">
<stop stop-color="#0080FF"/>
<stop offset="1" stop-color="#004D99"/>
</linearGradient>
</defs>
</svg>
