<svg width="24" height="24" viewBox="0 0 24 24" fill="none" xmlns="http://www.w3.org/2000/svg">
<path d="M12 0.123047C5.37265 0.123047 0 5.40627 0 11.9233C0 17.4571 3.87456 22.1008 9.1013 23.3762V15.5295H6.6269V11.9233H9.1013V10.3695C9.1013 6.3531 10.9497 4.49151 14.9597 4.49151C15.72 4.49151 17.0319 4.6383 17.5685 4.78462V8.05332C17.2853 8.02401 16.7933 8.00941 16.1822 8.00941C14.2147 8.00941 13.4544 8.74245 13.4544 10.648V11.9233H17.3741L16.7006 15.5295H13.4544V23.6372C19.3963 22.9315 24.0005 17.9565 24.0005 11.9233C24 5.40627 18.6273 0.123047 12 0.123047Z" fill="url(#paint0_linear_98_157)"/>
<defs>
<linearGradient id="paint0_linear_98_157" x1="12.0002" y1="0.123047" x2="12.0002" y2="23.6372" gradientUnits="userSpaceOnUse">
<stop stop-color="#0080FF"/>
<stop offset="1" stop-color="#0019A6"/>
</linearGradient>
</defs>
</svg>
