<svg width="24" height="24" viewBox="0 0 24 24" fill="none" xmlns="http://www.w3.org/2000/svg">
<path d="M12 2.24801C15.2063 2.24801 15.586 2.26185 16.8469 2.31716C18.0188 2.36786 18.6516 2.56146 19.0735 2.72279C19.6313 2.93483 20.0344 3.19296 20.4515 3.6032C20.8734 4.01806 21.1313 4.40986 21.3469 4.95839C21.511 5.37323 21.7078 6.00012 21.7594 7.14789C21.8156 8.39243 21.8297 8.76581 21.8297 11.9141C21.8297 15.067 21.8156 15.4403 21.7594 16.6803C21.7078 17.8327 21.511 18.455 21.3469 18.8698C21.1313 19.4184 20.8687 19.8147 20.4515 20.225C20.0297 20.6398 19.6313 20.8934 19.0735 21.1054C18.6516 21.2667 18.0141 21.4603 16.8469 21.511C15.5813 21.5663 15.2015 21.5802 12 21.5802C8.79375 21.5802 8.41405 21.5663 7.15315 21.511C5.98125 21.4603 5.34845 21.2667 4.92657 21.1054C4.36875 20.8934 3.96563 20.6353 3.54844 20.225C3.12656 19.8101 2.86875 19.4184 2.65313 18.8698C2.48907 18.455 2.29219 17.8281 2.24062 16.6803C2.18437 15.4358 2.17032 15.0624 2.17032 11.9141C2.17032 8.76124 2.18437 8.38786 2.24062 7.14789C2.29219 5.9955 2.48907 5.37323 2.65313 4.95839C2.86875 4.40986 3.13125 4.01345 3.54844 3.6032C3.97031 3.18835 4.36875 2.93483 4.92657 2.72279C5.34845 2.56146 5.98595 2.36786 7.15315 2.31716C8.41405 2.26185 8.79375 2.24801 12 2.24801ZM12 0.123047C8.7422 0.123047 8.3344 0.136875 7.0547 0.192189C5.7797 0.247503 4.90313 0.45032 4.14375 0.740717C3.35156 1.04494 2.68125 1.44597 2.01562 2.10512C1.34531 2.75967 0.9375 3.41883 0.628125 4.19322C0.332813 4.94456 0.126563 5.80193 0.0703125 7.0557C0.0140625 8.31868 0 8.71974 0 11.9233C0 15.1269 0.0140625 15.5279 0.0703125 16.7863C0.126563 18.0401 0.332813 18.9021 0.628125 19.6488C0.9375 20.4278 1.34531 21.087 2.01562 21.7415C2.68125 22.3961 3.35156 22.8017 4.13906 23.1013C4.90312 23.3917 5.775 23.5945 7.05 23.6498C8.3297 23.7051 8.7375 23.719 11.9953 23.719C15.2531 23.719 15.661 23.7051 16.9407 23.6498C18.2157 23.5945 19.0922 23.3917 19.8515 23.1013C20.639 22.8017 21.3094 22.3961 21.975 21.7415C22.6406 21.087 23.0532 20.4278 23.3578 19.6534C23.6531 18.9021 23.8594 18.0447 23.9156 16.7909C23.9719 15.5325 23.986 15.1315 23.986 11.9279C23.986 8.72436 23.9719 8.3233 23.9156 7.06495C23.8594 5.81117 23.6531 4.94917 23.3578 4.20244C23.0625 3.41882 22.6547 2.75967 21.9844 2.10512C21.3188 1.45058 20.6485 1.04494 19.861 0.745324C19.0969 0.454929 18.225 0.252112 16.95 0.196799C15.6657 0.136875 15.2578 0.123047 12 0.123047Z" fill="url(#paint0_linear_98_159)"/>
<path d="M12 5.86182C8.59689 5.86182 5.83594 8.57681 5.83594 11.9233C5.83594 15.2697 8.59689 17.9847 12 17.9847C15.4031 17.9847 18.164 15.2697 18.164 11.9233C18.164 8.57681 15.4031 5.86182 12 5.86182ZM12 15.8552C9.79219 15.8552 8.00154 14.0943 8.00154 11.9233C8.00154 9.75222 9.79219 7.99137 12 7.99137C14.2078 7.99137 15.9984 9.75222 15.9984 11.9233C15.9984 14.0943 14.2078 15.8552 12 15.8552Z" fill="url(#paint1_linear_98_159)"/>
<path d="M19.8468 5.62215C19.8468 6.40574 19.2 7.03725 18.4078 7.03725C17.611 7.03725 16.9688 6.40117 16.9688 5.62215C16.9688 4.83853 17.6157 4.20703 18.4078 4.20703C19.2 4.20703 19.8468 4.84314 19.8468 5.62215Z" fill="url(#paint2_linear_98_159)"/>
<defs>
<linearGradient id="paint0_linear_98_159" x1="11.993" y1="0.123047" x2="11.993" y2="23.719" gradientUnits="userSpaceOnUse">
<stop stop-color="#0080FF"/>
<stop offset="1" stop-color="#0019A6"/>
</linearGradient>
<linearGradient id="paint1_linear_98_159" x1="12" y1="5.86182" x2="12" y2="17.9847" gradientUnits="userSpaceOnUse">
<stop stop-color="#0080FF"/>
<stop offset="1" stop-color="#0019A6"/>
</linearGradient>
<linearGradient id="paint2_linear_98_159" x1="18.4078" y1="4.20703" x2="18.4078" y2="7.03725" gradientUnits="userSpaceOnUse">
<stop stop-color="#0080FF"/>
<stop offset="1" stop-color="#0019A6"/>
</linearGradient>
</defs>
</svg>
