<svg width="20" height="23" viewBox="0 0 20 23" fill="none" xmlns="http://www.w3.org/2000/svg">
<path d="M6.44112 1.09678C6.14035 0.268267 5.34742 -0.172717 4.58964 0.0633657L1.15229 1.13242C0.472635 1.34623 0 2.05002 0 2.85181C0 13.872 7.83559 22.8074 17.4992 22.8074C18.2023 22.8074 18.8195 22.2685 19.007 21.4934L19.9444 17.5735C20.1515 16.7094 19.7648 15.8052 19.0382 15.4622L15.2884 13.6804C14.6517 13.3775 13.9134 13.5869 13.4799 14.1971L11.9018 16.3931C9.15194 14.9098 6.92548 12.3708 5.62475 9.23494L7.55045 7.43983C8.08558 6.94093 8.26917 6.10351 8.00355 5.37745L6.44112 1.10124V1.09678Z" fill="url(#paint0_linear_144_32)"/>
<defs>
<linearGradient id="paint0_linear_144_32" x1="10" y1="0" x2="10" y2="22.8074" gradientUnits="userSpaceOnUse">
<stop stop-color="#0080FF"/>
<stop offset="1" stop-color="#004D99"/>
</linearGradient>
</defs>
</svg>
