<svg width="20" height="24" viewBox="0 0 20 24" fill="none" xmlns="http://www.w3.org/2000/svg">
<path d="M14.7049 0.123047H10.7588V16.1987C10.7588 18.1142 9.24117 19.6875 7.35244 19.6875C5.46376 19.6875 3.94605 18.1142 3.94605 16.1987C3.94605 14.3176 5.43 12.7784 7.25127 12.71V8.67396C3.23776 8.74236 0 12.0601 0 16.1987C0 20.3717 3.30522 23.7236 7.3862 23.7236C11.4671 23.7236 14.7723 20.3374 14.7723 16.1987V7.95567C16.2563 9.05019 18.0776 9.70009 20 9.73431V5.69823C17.032 5.59562 14.7049 3.13297 14.7049 0.123047Z" fill="url(#paint0_linear_98_164)"/>
<defs>
<linearGradient id="paint0_linear_98_164" x1="10" y1="0.123047" x2="10" y2="23.7236" gradientUnits="userSpaceOnUse">
<stop stop-color="#0080FF"/>
<stop offset="1" stop-color="#0019A6"/>
</linearGradient>
</defs>
</svg>
