<svg width="74" height="66" viewBox="0 0 74 66" fill="none" xmlns="http://www.w3.org/2000/svg">
<g filter="url(#filter0_d_98_62)">
<path d="M44.7796 24.0227C44.7855 22.5916 43.7755 21.4255 42.5246 21.4193L37.9932 21.3971C36.7423 21.3909 35.7227 22.547 35.7168 23.9782L35.706 26.5704L32.6851 26.5556L32.7012 22.6672C32.7042 21.9489 32.2015 21.3686 31.5737 21.3655C30.9459 21.3624 30.4385 21.9378 30.4355 22.6561L30.4194 26.5444L27.3985 26.5296L27.4146 22.6412C27.4175 21.9229 26.9149 21.3426 26.2871 21.3395C25.6593 21.3364 25.1518 21.9118 25.1489 22.6301L25.1328 26.5184L24.3776 26.5147C23.1267 26.5086 22.107 27.6647 22.1011 29.0958L22.0797 34.2803L22.0296 46.3774C22.0237 47.8086 23.0337 48.9747 24.2846 48.9808L36.3683 49.0402L37.8788 49.0476L42.4102 49.0699L49.9625 49.107C51.2134 49.1132 52.233 47.9571 52.239 46.5259L52.289 34.4288C52.2949 32.9977 51.2849 31.8316 50.034 31.8254L44.7474 31.7994L44.7796 24.0227ZM49.2395 41.3266L49.2323 43.0548C49.2304 43.53 48.8889 43.9172 48.4735 43.9151L46.963 43.9077C46.5477 43.9057 46.2094 43.5152 46.2114 43.0399L46.2185 41.3117C46.2205 40.8365 46.562 40.4493 46.9773 40.4514L48.4878 40.4588C48.9032 40.4608 49.2414 40.8514 49.2395 41.3266ZM33.3688 43.8409L31.8584 43.8335C31.443 43.8314 31.1048 43.4409 31.1067 42.9657L31.1139 41.2375C31.1158 40.7622 31.4573 40.3751 31.8727 40.3771L33.3831 40.3846C33.7985 40.3866 34.1368 40.7771 34.1348 41.2523L34.1277 42.9805C34.1257 43.4557 33.7842 43.8429 33.3688 43.8409ZM28.0858 42.9508C28.0838 43.426 27.7424 43.8132 27.327 43.8112L25.8165 43.8037C25.4011 43.8017 25.0629 43.4112 25.0649 42.936L25.072 41.2078C25.074 40.7325 25.4154 40.3454 25.8308 40.3474L27.3413 40.3549C27.7567 40.3569 28.0949 40.7474 28.0929 41.2226L28.0858 42.9508ZM48.5093 35.2743C48.9246 35.2764 49.2629 35.6669 49.2609 36.1421L49.2538 37.8703C49.2518 38.3455 48.9103 38.7327 48.495 38.7306L46.9845 38.7232C46.5691 38.7212 46.2309 38.3307 46.2328 37.8554L46.24 36.1273C46.242 35.652 46.5834 35.2649 46.9988 35.2669L48.5093 35.2743ZM34.1777 30.8834L34.1706 32.6115C34.1686 33.0868 33.8271 33.4739 33.4117 33.4719L31.9013 33.4645C31.4859 33.4624 31.1477 33.0719 31.1496 32.5967L31.1568 30.8685C31.1587 30.3933 31.5002 30.0061 31.9156 30.0082L33.426 30.0156C33.8414 30.0176 34.1797 30.4081 34.1777 30.8834ZM27.3842 29.9859C27.7996 29.9879 28.1378 30.3784 28.1358 30.8537L28.1287 32.5818C28.1267 33.0571 27.7853 33.4442 27.3699 33.4422L25.8594 33.4348C25.444 33.4327 25.1058 33.0422 25.1078 32.567L25.1149 30.8388C25.1169 30.3636 25.4583 29.9764 25.8737 29.9785L27.3842 29.9859ZM34.1491 37.796C34.1471 38.2713 33.8057 38.6584 33.3903 38.6564L31.8798 38.649C31.4645 38.6469 31.1262 38.2564 31.1282 37.7812L31.1353 36.053C31.1373 35.5778 31.4788 35.1906 31.8941 35.1926L33.4046 35.2001C33.82 35.2021 34.1582 35.5926 34.1563 36.0679L34.1491 37.796ZM27.3484 38.6267L25.838 38.6193C25.4226 38.6172 25.0843 38.2267 25.0863 37.7515L25.0935 36.0233C25.0954 35.5481 25.4369 35.1609 25.8523 35.1629L27.3627 35.1704C27.7781 35.1724 28.1164 35.5629 28.1144 36.0382L28.1072 37.7663C28.1053 38.2416 27.7638 38.6287 27.3484 38.6267ZM41.7086 36.105L41.7014 37.8331C41.6995 38.3084 41.358 38.6956 40.9426 38.6935L39.4322 38.6861C39.0168 38.684 38.6785 38.2935 38.6805 37.8183L38.6877 36.0901C38.6896 35.6149 39.0311 35.2277 39.4465 35.2298L40.9569 35.2372C41.3723 35.2392 41.7106 35.6297 41.7086 36.105ZM40.9998 24.8682C41.4152 24.8703 41.7535 25.2608 41.7515 25.736L41.7443 27.4642C41.7424 27.9394 41.4009 28.3266 40.9855 28.3246L39.4751 28.3171C39.0597 28.3151 38.7214 27.9246 38.7234 27.4493L38.7306 25.7212C38.7325 25.2459 39.074 24.8588 39.4894 24.8608L40.9998 24.8682ZM41.73 30.9205L41.7229 32.6487C41.7209 33.1239 41.3795 33.5111 40.9641 33.509L39.4536 33.5016C39.0382 33.4996 38.7 33.1091 38.702 32.6338L38.7091 30.9057C38.7111 30.4304 39.0525 30.0432 39.4679 30.0453L40.9784 30.0527C41.3938 30.0548 41.732 30.4453 41.73 30.9205Z" fill="url(#paint0_linear_98_62)"/>
</g>
<defs>
<filter id="filter0_d_98_62" x="0.429785" y="-1.2604" width="73.4593" height="70.9676" filterUnits="userSpaceOnUse" color-interpolation-filters="sRGB">
<feFlood flood-opacity="0" result="BackgroundImageFix"/>
<feColorMatrix in="SourceAlpha" type="matrix" values="0 0 0 0 0 0 0 0 0 0 0 0 0 0 0 0 0 0 127 0" result="hardAlpha"/>
<feOffset dy="-1"/>
<feGaussianBlur stdDeviation="10.8"/>
<feComposite in2="hardAlpha" operator="out"/>
<feColorMatrix type="matrix" values="0 0 0 0 0 0 0 0 0 0.383173 0 0 0 0 0.766346 0 0 0 1 0"/>
<feBlend mode="normal" in2="BackgroundImageFix" result="effect1_dropShadow_98_62"/>
<feBlend mode="normal" in="SourceGraphic" in2="effect1_dropShadow_98_62" result="shape"/>
</filter>
<linearGradient id="paint0_linear_98_62" x1="26.9253" y1="24.7272" x2="45.0991" y2="47.2988" gradientUnits="userSpaceOnUse">
<stop offset="0.213319" stop-color="#0080FF"/>
<stop offset="1" stop-color="#004D99"/>
</linearGradient>
</defs>
</svg>
