<svg width="18" height="24" viewBox="0 0 18 24" fill="none" xmlns="http://www.w3.org/2000/svg">
<path d="M9.78996 23.3757C12.1183 20.3695 17.4286 13.0833 17.4286 8.99066C17.4286 4.02707 13.5253 0 8.71429 0C3.90327 0 0 4.02707 0 8.99066C0 13.0833 5.31027 20.3695 7.63862 23.3757C8.19688 24.0922 9.2317 24.0922 9.78996 23.3757ZM8.71429 5.99377C9.48468 5.99377 10.2235 6.30951 10.7683 6.87154C11.313 7.43356 11.619 8.19583 11.619 8.99066C11.619 9.78548 11.313 10.5478 10.7683 11.1098C10.2235 11.6718 9.48468 11.9875 8.71429 11.9875C7.94389 11.9875 7.20506 11.6718 6.66031 11.1098C6.11556 10.5478 5.80952 9.78548 5.80952 8.99066C5.80952 8.19583 6.11556 7.43356 6.66031 6.87154C7.20506 6.30951 7.94389 5.99377 8.71429 5.99377Z" fill="url(#paint0_linear_144_33)"/>
<defs>
<linearGradient id="paint0_linear_144_33" x1="3.8125" y1="2.84109" x2="9.12171" y2="23.8099" gradientUnits="userSpaceOnUse">
<stop stop-color="#0080FF"/>
<stop offset="1" stop-color="#004D99"/>
</linearGradient>
</defs>
</svg>
