<svg width="81" height="69" viewBox="0 0 81 69" fill="none" xmlns="http://www.w3.org/2000/svg">
<g filter="url(#filter0_d_98_48)">
<path d="M59.9192 27.7306C60.1844 28.4033 59.9607 29.1534 59.3888 29.6328L55.8004 32.6795C55.8916 33.3213 55.9413 33.9786 55.9413 34.6436C55.9413 35.3086 55.8916 35.9659 55.8004 36.6077L59.3888 39.6543C59.9607 40.1338 60.1844 40.8838 59.9192 41.5566C59.5546 42.4767 59.1154 43.3583 58.6098 44.2089L58.2203 44.8352C57.6734 45.6858 57.0601 46.49 56.3888 47.2478C55.8999 47.8045 55.0877 47.9901 54.3584 47.7736L49.7424 46.4049C48.6319 47.2014 47.4054 47.8664 46.096 48.369L45.0601 52.7844C44.8943 53.488 44.3142 54.0448 43.5518 54.1608C42.4082 54.3386 41.2314 54.4314 40.0297 54.4314C38.828 54.4314 37.6512 54.3386 36.5076 54.1608C35.7452 54.0448 35.1651 53.488 34.9993 52.7844L33.9634 48.369C32.654 47.8664 31.4275 47.2014 30.317 46.4049L25.7092 47.7813C24.98 47.9979 24.1678 47.8045 23.6789 47.2555C23.0076 46.4977 22.3943 45.6935 21.8474 44.8429L21.4579 44.2166C20.9523 43.366 20.5131 42.4845 20.1485 41.5643C19.8833 40.8916 20.107 40.1415 20.6788 39.6621L24.2673 36.6154C24.1761 35.9659 24.1264 35.3086 24.1264 34.6436C24.1264 33.9786 24.1761 33.3213 24.2673 32.6795L20.6788 29.6328C20.107 29.1534 19.8833 28.4033 20.1485 27.7306C20.5131 26.8104 20.9523 25.9289 21.4579 25.0783L21.8474 24.452C22.3943 23.6014 23.0076 22.7972 23.6789 22.0394C24.1678 21.4826 24.98 21.297 25.7092 21.5136L30.3253 22.8822C31.4358 22.0858 32.6623 21.4208 33.9717 20.9181L35.0076 16.5028C35.1733 15.7991 35.7535 15.2424 36.5159 15.1264C37.6595 14.9408 38.8363 14.848 40.038 14.848C41.2396 14.848 42.4164 14.9408 43.5601 15.1187C44.3225 15.2347 44.9026 15.7914 45.0684 16.4951L46.1043 20.9104C47.4137 21.413 48.6402 22.078 49.7507 22.8745L54.3667 21.5058C55.096 21.2893 55.9082 21.4826 56.3971 22.0316C57.0684 22.7894 57.6817 23.5936 58.2286 24.4442L58.6181 25.0706C59.1236 25.9212 59.5629 26.8027 59.9275 27.7229L59.9192 27.7306ZM40.038 40.8297C41.7963 40.8297 43.4827 40.1779 44.726 39.0178C45.9693 37.8577 46.6678 36.2842 46.6678 34.6436C46.6678 33.0029 45.9693 31.4295 44.726 30.2693C43.4827 29.1092 41.7963 28.4575 40.038 28.4575C38.2796 28.4575 36.5933 29.1092 35.35 30.2693C34.1066 31.4295 33.4081 33.0029 33.4081 34.6436C33.4081 36.2842 34.1066 37.8577 35.35 39.0178C36.5933 40.1779 38.2796 40.8297 40.038 40.8297Z" fill="url(#paint0_linear_98_48)"/>
</g>
<defs>
<filter id="filter0_d_98_48" x="0.0375977" y="-5.15198" width="79.9927" height="79.5834" filterUnits="userSpaceOnUse" color-interpolation-filters="sRGB">
<feFlood flood-opacity="0" result="BackgroundImageFix"/>
<feColorMatrix in="SourceAlpha" type="matrix" values="0 0 0 0 0 0 0 0 0 0 0 0 0 0 0 0 0 0 127 0" result="hardAlpha"/>
<feOffset/>
<feGaussianBlur stdDeviation="10"/>
<feComposite in2="hardAlpha" operator="out"/>
<feColorMatrix type="matrix" values="0 0 0 0 0 0 0 0 0 0.3 0 0 0 0 0.6 0 0 0 1 0"/>
<feBlend mode="normal" in2="BackgroundImageFix" result="effect1_dropShadow_98_48"/>
<feBlend mode="normal" in="SourceGraphic" in2="effect1_dropShadow_98_48" result="shape"/>
</filter>
<linearGradient id="paint0_linear_98_48" x1="40.0338" y1="14.848" x2="40.0338" y2="54.4314" gradientUnits="userSpaceOnUse">
<stop stop-color="#0080FF"/>
<stop offset="1" stop-color="#0019A6"/>
</linearGradient>
</defs>
</svg>
