<svg width="74" height="55" viewBox="0 0 74 55" fill="none" xmlns="http://www.w3.org/2000/svg">
<g filter="url(#filter0_d_98_64)">
<path d="M38.3752 41.1762C41.3525 37.4184 48.1426 28.3106 48.1426 23.1949C48.1426 16.9904 43.1516 11.9565 36.9998 11.9565C30.848 11.9565 25.8569 16.9904 25.8569 23.1949C25.8569 28.3106 32.6471 37.4184 35.6243 41.1762C36.3382 42.0717 37.6614 42.0717 38.3752 41.1762ZM36.9998 19.4488C37.9849 19.4488 38.9296 19.8434 39.6262 20.546C40.3228 21.2485 40.7141 22.2013 40.7141 23.1949C40.7141 24.1884 40.3228 25.1412 39.6262 25.8438C38.9296 26.5463 37.9849 26.941 36.9998 26.941C36.0147 26.941 35.07 26.5463 34.3734 25.8438C33.6768 25.1412 33.2855 24.1884 33.2855 23.1949C33.2855 22.2013 33.6768 21.2485 34.3734 20.546C35.07 19.8434 36.0147 19.4488 36.9998 19.4488Z" fill="url(#paint0_linear_98_64)"/>
</g>
<defs>
<filter id="filter0_d_98_64" x="0.0569344" y="-9.84346" width="73.8856" height="81.4914" filterUnits="userSpaceOnUse" color-interpolation-filters="sRGB">
<feFlood flood-opacity="0" result="BackgroundImageFix"/>
<feColorMatrix in="SourceAlpha" type="matrix" values="0 0 0 0 0 0 0 0 0 0 0 0 0 0 0 0 0 0 127 0" result="hardAlpha"/>
<feOffset dy="4"/>
<feGaussianBlur stdDeviation="12.9"/>
<feComposite in2="hardAlpha" operator="out"/>
<feColorMatrix type="matrix" values="0 0 0 0 0 0 0 0 0 0.3 0 0 0 0 0.6 0 0 0 1 0"/>
<feBlend mode="normal" in2="BackgroundImageFix" result="effect1_dropShadow_98_64"/>
<feBlend mode="normal" in="SourceGraphic" in2="effect1_dropShadow_98_64" result="shape"/>
</filter>
<linearGradient id="paint0_linear_98_64" x1="30.7319" y1="15.5079" x2="37.2369" y2="41.7892" gradientUnits="userSpaceOnUse">
<stop stop-color="#0080FF"/>
<stop offset="1" stop-color="#004D99"/>
</linearGradient>
</defs>
</svg>
