<svg width="81" height="80" viewBox="0 0 81 80" fill="none" xmlns="http://www.w3.org/2000/svg">
<g filter="url(#filter0_d_98_100)">
<path d="M26.6303 20.6831C25.8906 20.1154 24.8394 20.1844 24.1697 20.8365L21.0551 23.9051C20.3932 24.5572 20.3231 25.5928 20.8916 26.3293L27.1209 34.3076C27.4713 34.7602 28.0241 35.0287 28.6003 35.0287H32.8129L41.3003 43.3905C40.1557 45.6153 40.5217 48.4077 42.4138 50.2642L51.1348 58.8562C52.1082 59.8151 53.6889 59.8151 54.6622 58.8562L59.6456 53.9464C60.619 52.9875 60.619 51.4302 59.6456 50.4713L50.9246 41.8793C49.0402 40.0228 46.2059 39.6546 43.9478 40.7823L35.4604 32.4204V28.2701C35.4604 27.6948 35.1878 27.1578 34.7284 26.8126L26.6303 20.6831ZM22.0596 50.6861C21.0707 51.6604 20.51 52.9875 20.51 54.3684C20.51 57.2452 22.8772 59.5773 25.7971 59.5773C27.1987 59.5773 28.5458 59.0249 29.5347 58.0507L38.7074 49.0137C38.1 47.4104 38.0066 45.669 38.4271 44.0196L33.6227 39.2863L22.0596 50.6861ZM60.3776 31.3464C60.3776 30.5409 60.2919 29.7584 60.1284 29.0066C59.9415 28.1474 58.8748 27.9249 58.244 28.5463L53.2684 33.4484C53.0348 33.6785 52.7155 33.8089 52.3885 33.8089L47.919 33.8012C47.2337 33.8012 46.6731 33.2489 46.6731 32.5738V28.1704C46.6731 27.8482 46.8055 27.5337 47.0391 27.3035L52.0147 22.4015C52.6455 21.7801 52.4196 20.7291 51.5475 20.545C50.7767 20.3839 49.9824 20.2995 49.1648 20.2995C42.9745 20.2995 37.9521 25.2476 37.9521 31.3464V31.4078L44.5941 37.9515C47.3973 37.2534 50.4963 37.9898 52.6922 40.1532L53.9147 41.3576C57.7301 39.5932 60.3776 35.7728 60.3776 31.3464ZM24.8705 53.4401C24.8705 52.9518 25.0674 52.4835 25.4179 52.1382C25.7684 51.793 26.2437 51.599 26.7393 51.599C27.235 51.599 27.7103 51.793 28.0608 52.1382C28.4112 52.4835 28.6081 52.9518 28.6081 53.4401C28.6081 53.9284 28.4112 54.3967 28.0608 54.742C27.7103 55.0873 27.235 55.2813 26.7393 55.2813C26.2437 55.2813 25.7684 55.0873 25.4179 54.742C25.0674 54.3967 24.8705 53.9284 24.8705 53.4401Z" fill="url(#paint0_linear_98_100)"/>
</g>
<defs>
<filter id="filter0_d_98_100" x="0.507812" y="0.298584" width="79.8696" height="79.2787" filterUnits="userSpaceOnUse" color-interpolation-filters="sRGB">
<feFlood flood-opacity="0" result="BackgroundImageFix"/>
<feColorMatrix in="SourceAlpha" type="matrix" values="0 0 0 0 0 0 0 0 0 0 0 0 0 0 0 0 0 0 127 0" result="hardAlpha"/>
<feOffset/>
<feGaussianBlur stdDeviation="10"/>
<feComposite in2="hardAlpha" operator="out"/>
<feColorMatrix type="matrix" values="0 0 0 0 0 0 0 0 0 0.3 0 0 0 0 0.6 0 0 0 1 0"/>
<feBlend mode="normal" in2="BackgroundImageFix" result="effect1_dropShadow_98_100"/>
<feBlend mode="normal" in="SourceGraphic" in2="effect1_dropShadow_98_100" result="shape"/>
</filter>
<linearGradient id="paint0_linear_98_100" x1="40.4427" y1="20.2986" x2="40.4427" y2="59.5773" gradientUnits="userSpaceOnUse">
<stop stop-color="#0080FF"/>
<stop offset="1" stop-color="#0019A6"/>
</linearGradient>
</defs>
</svg>
